<?xml version="1.0" encoding="UTF-8"?>
<svg width="32" height="32" viewBox="0 0 32 32" fill="none" xmlns="http://www.w3.org/2000/svg">
  <!-- Building/chart base -->
  <path d="M4 28H28V30H4V28Z" fill="currentColor" />
  
  <!-- Building/chart columns -->
  <path d="M6 16H10V28H6V16Z" fill="currentColor" opacity="0.8" />
  <path d="M14 20H18V28H14V20Z" fill="currentColor" opacity="0.9" />
  <path d="M22 12H26V28H22V12Z" fill="currentColor" />
  
  <!-- Spotlight beam -->
  <path d="M16 3C15.4477 3 15 3.44772 15 4V5C15 5.55228 15.4477 6 16 6C16.5523 6 17 5.55228 17 5V4C17 3.44772 16.5523 3 16 3Z" fill="currentColor" />
  <path d="M21.6569 4.92893C21.2663 4.53841 20.6332 4.53841 20.2426 4.92893C19.8521 5.31946 19.8521 5.95262 20.2426 6.34315L20.9497 7.05025C21.3402 7.44078 21.9734 7.44078 22.3639 7.05025C22.7545 6.65973 22.7545 6.02656 22.3639 5.63604L21.6569 4.92893Z" fill="currentColor" />
  <path d="M10.3431 4.92893L9.63604 5.63604C9.24551 6.02656 9.24551 6.65973 9.63604 7.05025C10.0266 7.44078 10.6597 7.44078 11.0503 7.05025L11.7574 6.34315C12.1479 5.95262 12.1479 5.31946 11.7574 4.92893C11.3668 4.53841 10.7337 4.53841 10.3431 4.92893Z" fill="currentColor" />
  
  <!-- Main spotlight/person -->
  <path d="M16 7C13.7909 7 12 8.79086 12 11C12 12.8638 13.2747 14.4299 15 14.874V17C15 17.5523 15.4477 18 16 18C16.5523 18 17 17.5523 17 17V14.874C18.7253 14.4299 20 12.8638 20 11C20 8.79086 18.2091 7 16 7Z" fill="currentColor" />
  
  <!-- Circular arc/orbit -->
  <path d="M16 2C8.26801 2 2 8.26801 2 16C2 23.732 8.26801 30 16 30C23.732 30 30 23.732 30 16C30 8.26801 23.732 2 16 2ZM16 4C22.6274 4 28 9.37258 28 16C28 22.6274 22.6274 28 16 28C9.37258 28 4 22.6274 4 16C4 9.37258 9.37258 4 16 4Z" fill="currentColor" opacity="0.3" />
</svg>
